PathFileType	4	(X/Y/Z)	6_coords_data.trc
DataRate	CameraRate	NumFrames	NumMarkers	Units	OrigDataRate	OrigDataStartFrame	OrigNumFrames
30.0	30.0	4	21	m	30.0	1	55
Frame#	Time	THUMB_TIP	THUMB_IP	THUMB_MCP	THUMB_CMC	INDEX_TIP	INDEX_DIP	INDEX_PIP	INDEX_MCP	MIDDLE_TIP	MIDDLE_DIP	MIDDLE_PIP	MIDDLE_MCP	RING_TIP	RING_DIP	RING_PIP	RING_MCP	PINKY_TIP	PINKY_DIP	PINKY_PIP	PINKY_MCP	WRIST
X1	Y1	Z1	X2	Y2	Z2	X3	Y3	Z3	X4	Y4	Z4	X5	Y5	Z5	X6	Y6	Z6	X7	Y7	Z7	X8	Y8	Z8	X9	Y9	Z9	X10	Y10	Z10	X11	Y11	Z11	X12	Y12	Z12	X13	Y13	Z13	X14	Y14	Z14	X15	Y15	Z15	X16	Y16	Z16	X17	Y17	Z17	X18	Y18	Z18	X19	Y19	Z19	X20	Y20	Z20	X21	Y21	Z21
0	0.0	0.0030150699615478513	-0.17217100524902343	1.0521500244140625	0.011046799659729004	-0.146281005859375	1.0608699951171876	0.000169892996549606	-0.11962200164794921	1.0741700439453126	-0.006360079765319824	-0.07631020355224609	1.080030029296875	0.04515110015869141	-0.1296699981689453	0.9492230224609375	0.038327999114990234	-0.12060700225830077	0.9693209838867187	0.031557300567626956	-0.11099700164794922	0.9927949829101562	0.01741279983520508	-0.09495670318603516	1.02227001953125	0.05006100082397461	-0.07516419982910157	0.9239409790039063	0.04027259826660156	-0.07617389678955078	0.9510349731445312	0.028367799758911134	-0.07467430114746093	0.9801669921875	0.012102199554443359	-0.07080770111083984	1.0166400146484376	0.0488380012512207	-0.035093799591064456	0.932875	0.04058390045166015	-0.038398700714111327	0.9567449951171875	0.03086829948425293	-0.04262300109863281	0.9858289794921875	0.01271780014038086	-0.04569179916381836	1.0226300048828125	0.04629610061645508	0.004853670120239258	0.9737150268554687	0.04114799880981445	-0.0036783299446105948	0.990875	0.03217219924926758	-0.01215719985961914	1.0055499877929688	0.016958499908447267	-0.02712529945373535	1.029239990234375	-0.024324199676513673	-0.045249500274658204	1.08797998046875
1	0.03333333333333333	0.003549050092697143	-0.17218299865722655	1.0521400146484374	0.010281299591064453	-0.14635499572753907	1.0611099853515624	0.000446294009685516	-0.1186240005493164	1.0741500244140625	-0.003680670022964477	-0.0790698013305664	1.0818800048828126	0.04449330139160156	-0.12942799377441405	0.94964599609375	0.037840198516845704	-0.12116100311279297	0.9703720092773438	0.03034480094909668	-0.11166999816894531	0.992406982421875	0.014789199829101563	-0.09352429962158203	1.0253299560546876	0.049843799591064455	-0.07530760192871094	0.9246519775390625	0.040755901336669925	-0.07509149932861328	0.94956298828125	0.028874900817871092	-0.07402290344238281	0.9793040161132812	0.011299799919128418	-0.06983190155029297	1.01725	0.04750979995727539	-0.0354010009765625	0.9332930297851563	0.040814701080322265	-0.03874309921264649	0.9571420288085938	0.03248149871826172	-0.04269060134887695	0.984302978515625	0.01643600082397461	-0.047491100311279295	1.0211799926757812	0.046440399169921875	0.005865580081939698	0.973583984375	0.039050399780273436	-0.0036440401077270507	0.9906649780273438	0.031257999420166015	-0.012678000450134277	1.0060999755859374	0.01777680015563965	-0.02777440071105957	1.0291800537109375	-0.025234600067138672	-0.045220798492431644	1.0917099609375
2	0.06666666666666667	0.003537120103836059	-0.17224600219726563	1.0523699951171874	0.010242899894714356	-0.14641099548339845	1.0612900390625	0.00041466200351715005	-0.11873799896240235	1.074300048828125	-0.0037664198875427242	-0.07910900115966797	1.0821199951171876	0.04420959854125977	-0.12955400085449217	0.9498489990234374	0.03760699844360352	-0.12126499938964844	0.9705460205078125	0.03013719940185547	-0.11172200012207031	0.9925869750976563	0.014627599716186523	-0.09364910125732422	1.025550048828125	0.04950210189819336	-0.07545339965820312	0.9248319702148438	0.04039039993286133	-0.07522389984130859	0.949760009765625	0.02852589988708496	-0.07412760162353516	0.9795180053710938	0.010948800086975097	-0.06982520294189454	1.0175499877929688	0.04752569961547851	-0.035499298095703125	0.9335809936523437	0.04072529983520508	-0.038844501495361325	0.9573989868164062	0.03233940124511719	-0.04275099945068359	0.9845369873046875	0.016193300247192382	-0.04756380081176758	1.02125	0.0461156005859375	0.00582289981842041	0.973760009765625	0.03878210067749024	-0.003656399965286255	0.99081201171875	0.03102039909362793	-0.012685299873352051	1.0063300170898437	0.017566200256347655	-0.027830799102783202	1.0293399658203124	-0.025377899169921874	-0.04527059936523437	1.09197998046875
3	0.1	0.003545809984207153	-0.17233999633789063	1.0525999755859374	0.01017080020904541	-0.14651199340820312	1.0615799560546875	0.000243542999029159	-0.11884799957275391	1.0745	-0.00385558009147644	-0.07922250366210938	1.0823699951171875	0.04403160095214844	-0.12972799682617187	0.9500880126953125	0.037418201446533204	-0.12139700317382812	0.9708280029296875	0.029951799392700196	-0.11186199951171875	0.9928820190429688	0.014391400337219239	-0.09377660369873046	1.0258399658203126	0.04929090118408203	-0.07561049652099609	0.9250679931640625	0.040249900817871095	-0.0753936996459961	0.949948974609375	0.02842289924621582	-0.07427420043945313	0.9797479858398438	0.010848400115966796	-0.07003500366210938	1.0176699829101563	0.047695899963378904	-0.03556800079345703	0.93397900390625	0.04085400009155273	-0.03892729949951172	0.957760009765625	0.032315799713134766	-0.04288710021972656	0.984875	0.01601810073852539	-0.047701499938964845	1.021489990234375	0.04584469985961914	0.005810969829559326	0.9740159912109375	0.03852450180053711	-0.003714869976043701	0.9910709838867188	0.03074729919433594	-0.012777199745178222	1.0066699829101562	0.01736389923095703	-0.027947999954223632	1.0295	-0.0254906005859375	-0.04543209838867188	1.0920799560546874
